<?xml version="1.0" encoding="UTF-8" standalone="no"?>
<!DOCTYPE svg PUBLIC "-//W3C//DTD SVG 1.1//EN" "http://www.w3.org/Graphics/SVG/1.1/DTD/svg11.dtd">
<svg width="100%" height="100%" viewBox="0 0 500 500" version="1.1" xmlns="http://www.w3.org/2000/svg" xmlns:xlink="http://www.w3.org/1999/xlink" xml:space="preserve" xmlns:serif="http://www.serif.com/" style="fill-rule:evenodd;clip-rule:evenodd;stroke-linecap:round;stroke-linejoin:round;stroke-miterlimit:1.5;">
    <path d="M303.04,368.685L289.537,383.362C265.772,361.929 240.704,339.173 230.095,329.059C208.431,339.633 201.796,380.526 178.477,418.785C155.772,456.037 114.847,470.358 88.975,450.695L88.861,450.821C88.555,450.52 88.255,450.216 87.96,449.908L87.918,449.954C87.755,449.793 87.593,449.631 87.433,449.468C87.258,449.323 87.083,449.175 86.909,449.025L86.952,448.98C86.62,448.712 86.292,448.438 85.967,448.158L86.082,448.034C64.334,423.889 75.198,381.914 110.43,356.187C146.616,329.763 186.814,319.747 195.548,297.277C184.586,287.548 159.822,264.46 136.485,242.562L149.987,227.885L303.04,368.685ZM140.416,389.822C151.528,400.044 152.25,417.365 142.028,428.477C131.806,439.589 114.485,440.311 103.373,430.089C92.261,419.866 91.539,402.546 101.761,391.434C111.983,380.322 129.304,379.6 140.416,389.822ZM177.783,204.686C177.901,204.531 178.028,204.38 178.163,204.233C197.21,183.529 271.446,102.832 298.463,73.465C303.931,67.52 313.183,67.134 319.128,72.603C346.21,97.517 416.943,162.588 444.025,187.502C449.97,192.97 450.356,202.222 444.887,208.167C417.871,237.534 343.634,318.231 324.587,338.936C324.413,339.125 324.23,339.302 324.039,339.467L327.223,342.397L312.06,358.88L159.007,218.08L174.17,201.597L177.679,204.824L177.737,204.745L177.783,204.686ZM364.148,199.803C363.985,200.063 363.714,200.427 363.284,200.895C359.281,205.246 346.43,221.23 323.525,204.484C300.619,187.737 338.825,162.328 331.261,158.459C323.697,154.59 295.065,197.608 274.782,185.596C254.499,173.584 258.235,159.251 266.641,144.739C272.224,135.103 205.149,200.631 208.812,217.517C212.475,234.403 289.49,312.978 313.2,308.913C336.909,304.848 406.587,214.644 407.235,212.722C393.225,223.963 388.995,226.803 375.158,215.526C364.089,206.505 363.804,201.334 364.148,199.803C364.55,199.161 364.293,199.156 364.148,199.802L364.148,199.803Z" style="fill:rgb(12,0,0);stroke:black;stroke-width:1px;"/>
</svg>
