<?xml version="1.0" encoding="UTF-8" standalone="no"?>
<!DOCTYPE svg PUBLIC "-//W3C//DTD SVG 1.1//EN" "http://www.w3.org/Graphics/SVG/1.1/DTD/svg11.dtd">
<svg width="100%" height="100%" viewBox="0 0 500 500" version="1.1" xmlns="http://www.w3.org/2000/svg" xmlns:xlink="http://www.w3.org/1999/xlink" xml:space="preserve" xmlns:serif="http://www.serif.com/" style="fill-rule:evenodd;clip-rule:evenodd;stroke-linejoin:round;stroke-miterlimit:1.41421;">
    <g id="a" transform="matrix(2.3569,0,0,2.3569,-264.187,-314.401)">
        <path d="M296,225C296,222.24 293.76,220 291,220L145,220C142.24,220 140,222.24 140,225L140,260C140,262.76 142.24,265 145,265L291,265C293.76,265 296,262.76 296,260L296,225Z" style="fill:rgb(0,129,213);"/>
        <clipPath id="_clip1">
            <path d="M296,225C296,222.24 293.76,220 291,220L145,220C142.24,220 140,222.24 140,225L140,260C140,262.76 142.24,265 145,265L291,265C293.76,265 296,262.76 296,260L296,225Z"/>
        </clipPath>
        <g clip-path="url(#_clip1)">
            <g id="Login" transform="matrix(1,0,0,1,217.871,247.676)">
                <text x="-23.339px" y="0px" style="font-family:'ArialMT', 'Arial', sans-serif;font-size:15px;fill:white;">LOGIN</text>
            </g>
        </g>
    </g>
</svg>
