<?xml version="1.0" encoding="UTF-8" standalone="no"?>
<!DOCTYPE svg PUBLIC "-//W3C//DTD SVG 1.1//EN" "http://www.w3.org/Graphics/SVG/1.1/DTD/svg11.dtd">
<svg width="100%" height="100%" viewBox="0 0 512 512" version="1.1" xmlns="http://www.w3.org/2000/svg" xmlns:xlink="http://www.w3.org/1999/xlink" xml:space="preserve" xmlns:serif="http://www.serif.com/" style="fill-rule:evenodd;clip-rule:evenodd;stroke-linecap:round;stroke-linejoin:bevel;stroke-miterlimit:1.5;">
    <g transform="matrix(1.35348,0,0,1.35348,-88.5977,-104.008)">
        <path d="M251.662,138.358L251.963,138.358C252.534,138.358 253.102,138.36 253.668,138.366L253.668,138.374C357.436,139.827 388.216,239.438 396.812,314.973C398.108,317.978 400.676,370.424 397.545,381.5C394.413,392.576 385.641,397.294 380.218,400.01C366.392,406.937 341.726,404.983 325.864,402.633C310.001,400.282 301.777,391.176 297.924,375.744L296.873,347.058C296.873,333.377 307.361,308.873 330.619,305.452L373.533,299.98C362.909,235.125 333.364,161.959 253.668,160.839L253.668,160.842C253.003,160.832 252.334,160.826 251.662,160.826C250.99,160.826 250.322,160.832 249.657,160.842L249.657,160.839C169.96,161.959 140.416,235.125 129.791,299.98L172.705,305.452C195.963,308.873 206.451,333.377 206.451,347.058L205.401,375.744C201.548,391.176 193.323,400.282 177.461,402.633C161.598,404.983 136.932,406.937 123.106,400.01C117.683,397.294 108.912,392.576 105.78,381.5C102.648,370.424 105.217,317.978 106.513,314.973C115.109,239.438 145.888,139.827 249.657,138.374L249.657,138.366C250.223,138.36 250.791,138.358 251.361,138.358L251.662,138.358Z" style="stroke:black;stroke-width:11.8px;"/>
    </g>
</svg>
