<!DOCTYPE svg PUBLIC "-//W3C//DTD SVG 20010904//EN" "http://www.w3.org/TR/2001/REC-SVG-20010904/DTD/svg10.dtd">
<svg version="1.0" xmlns="http://www.w3.org/2000/svg" width="1600px" height="1600px" viewBox="0 0 16000 16000" preserveAspectRatio="xMidYMid meet">
<g id="layer101" fill="#000000" stroke="none">
 <path d="M14428 14283 c-20 -23 -38 -78 -38 -114 0 -22 -5 -29 -19 -29 -23 0 -95 -56 -177 -138 -64 -64 -75 -69 -118 -52 -24 9 -28 6 -45 -29 -20 -39 -41 -171 -40 -249 1 -23 -5 -49 -12 -58 -11 -14 -11 -18 1 -28 13 -9 15 -52 14 -251 -1 -222 4 -360 21 -568 3 -45 8 -104 10 -132 16 -206 31 -360 35 -360 3 0 7 -48 14 -170 7 -127 15 -237 22 -295 13 -108 15 -209 9 -337 l-7 -145 -38 5 c-20 2 -41 7 -47 10 -8 5 -154 20 -210 21 -13 1 -23 4 -23 7 0 8 -146 18 -335 25 -71 2 -164 7 -205 10 -169 12 -1144 9 -1258 -5 -63 -7 -115 -11 -117 -9 -2 1 -5 53 -8 113 -2 61 -12 220 -21 355 -47 715 -57 941 -63 1518 -6 556 -5 592 11 592 10 0 27 -5 38 -11 15 -8 27 -8 44 2 31 16 30 24 -6 39 -16 7 -30 16 -30 20 0 4 -13 10 -30 14 -25 5 -30 10 -30 35 0 16 -4 33 -10 36 -5 3 -10 16 -10 27 0 18 -4 20 -34 15 -28 -4 -35 -2 -39 14 -7 25 -37 25 -44 -1 -5 -18 -14 -20 -79 -20 -40 0 -75 4 -78 8 -3 5 -18 7 -34 4 -16 -2 -33 1 -36 7 -11 18 -161 14 -176 -4 -7 -8 -23 -15 -36 -15 -13 0 -24 -6 -25 -12 -1 -7 -2 -46 -3 -86 -2 -61 -6 -78 -27 -105 -14 -18 -36 -50 -49 -72 -13 -22 -30 -44 -37 -48 -7 -4 -13 -14 -13 -21 0 -8 -6 -19 -14 -25 -19 -16 -41 14 -136 181 -40 70 -84 139 -98 155 -13 15 -31 38 -39 51 -9 12 -19 22 -25 22 -5 0 -18 9 -30 20 -12 11 -28 20 -35 20 -29 0 -73 -31 -79 -56 -5 -21 -11 -24 -29 -20 -30 8 -55 -2 -55 -22 0 -8 -3 -12 -7 -9 -10 11 -53 -34 -53 -56 0 -10 6 -31 13 -45 8 -15 22 -44 32 -65 11 -21 29 -51 42 -65 13 -15 23 -32 23 -39 0 -6 13 -25 29 -41 16 -16 40 -44 53 -63 39 -57 111 -153 131 -174 10 -11 39 -50 64 -87 24 -38 49 -68 53 -68 5 0 6 -7 3 -17 -4 -9 -2 -14 3 -11 5 3 15 0 22 -8 7 -8 10 -14 7 -14 -4 0 1 -7 10 -16 30 -30 44 -58 65 -129 12 -39 27 -83 35 -100 8 -16 26 -70 40 -120 14 -49 30 -100 35 -112 10 -24 8 -38 -13 -103 -8 -25 -18 -65 -21 -90 -4 -24 -11 -49 -15 -55 -5 -5 -11 -26 -14 -45 -7 -45 -11 -63 -19 -75 -3 -5 -9 -26 -12 -45 -4 -19 -11 -46 -16 -60 -5 -14 -20 -70 -35 -125 -14 -55 -32 -120 -39 -145 -8 -25 -24 -79 -36 -120 -12 -41 -30 -102 -40 -135 -10 -33 -24 -81 -30 -107 -7 -27 -16 -48 -20 -48 -8 0 -8 366 0 372 3 2 19 11 35 20 41 23 38 42 -6 48 -34 5 -36 7 -34 36 1 17 0 48 -4 70 -5 33 -10 39 -31 39 -24 0 -25 -3 -35 -93 l-10 -92 -57 -40 c-50 -34 -58 -37 -58 -21 0 20 -26 34 -51 29 -16 -4 -39 -62 -39 -100 0 -14 -5 -28 -11 -30 -13 -4 -12 15 -10 -315 1 -145 6 -265 10 -267 4 -3 8 -52 10 -109 1 -76 -2 -111 -14 -133 -8 -16 -15 -37 -15 -46 0 -10 -3 -18 -8 -18 -4 0 -15 -30 -25 -67 -10 -38 -25 -83 -33 -101 -8 -18 -14 -40 -14 -48 0 -16 -25 -101 -42 -139 -4 -11 -13 -42 -19 -70 -18 -87 -27 -128 -49 -210 -12 -44 -24 -96 -27 -115 -2 -19 -11 -49 -19 -67 -8 -17 -14 -40 -14 -52 0 -11 -6 -38 -14 -58 -8 -21 -19 -65 -25 -98 -7 -33 -16 -73 -21 -90 -5 -16 -11 -50 -15 -75 -4 -25 -13 -67 -20 -95 -63 -236 -100 -467 -117 -735 -3 -45 4 -62 35 -80 32 -20 23 -29 -11 -11 -25 14 -104 27 -327 56 -110 14 -214 30 -231 35 -17 6 -58 10 -91 10 -33 0 -96 7 -139 14 -44 8 -131 18 -194 22 -63 5 -118 9 -122 10 -5 1 -33 2 -64 3 -30 0 -53 5 -50 9 3 5 -4 19 -15 30 -14 16 -32 22 -62 22 -89 0 -81 -19 -101 258 -18 261 -29 332 -53 371 -11 18 -14 48 -12 130 2 58 7 108 11 112 4 3 10 192 14 420 3 232 13 504 22 619 10 134 16 337 17 585 1 341 7 499 20 590 l5 30 217 0 c187 0 218 2 218 15 0 10 -14 17 -45 21 -40 5 -41 6 -12 9 31 2 45 5 60 10 9 4 13 4 85 14 31 4 57 12 57 18 0 5 12 7 29 3 17 -3 32 -2 36 4 3 6 15 11 26 11 10 0 19 4 19 9 0 5 15 13 33 16 17 4 37 11 42 15 6 4 28 13 50 20 51 16 128 50 135 60 3 4 23 15 45 26 22 10 42 21 45 24 3 3 25 18 50 32 25 14 58 38 72 53 16 16 32 24 39 19 8 -4 9 -3 5 5 -4 6 0 14 11 18 24 8 135 123 161 165 11 18 23 48 27 66 3 17 13 32 20 32 16 0 29 51 21 78 -12 38 -146 127 -258 173 -16 6 -28 15 -28 20 0 4 -16 11 -35 15 -19 3 -35 10 -35 14 0 5 -33 20 -72 35 -40 15 -90 36 -111 46 -21 10 -46 19 -57 19 -11 0 -20 4 -20 9 0 5 -19 12 -42 16 -24 3 -52 10 -63 15 -30 13 -142 39 -269 62 -61 11 -132 23 -157 28 -25 4 -65 10 -90 11 -24 2 -46 6 -49 10 -3 4 -36 10 -75 14 -38 3 -114 12 -168 19 -123 16 -255 14 -283 -4 -18 -11 -49 -10 -200 8 -99 12 -224 27 -279 32 -152 16 -522 13 -657 -5 -109 -14 -228 -44 -252 -64 -21 -17 -150 -81 -163 -81 -7 0 -13 -3 -13 -8 0 -4 -16 -16 -37 -27 -30 -17 -164 -142 -198 -187 -75 -96 -90 -175 -59 -303 7 -28 87 -115 106 -115 5 0 24 -11 41 -24 18 -13 61 -38 97 -57 36 -19 70 -39 75 -45 30 -33 160 -90 288 -126 20 -6 37 -14 37 -18 0 -5 19 -11 43 -15 23 -4 60 -16 81 -26 22 -11 47 -19 57 -19 19 0 205 -62 256 -86 17 -7 42 -14 55 -14 13 0 28 -4 34 -9 5 -4 30 -14 56 -21 30 -8 50 -19 53 -31 4 -11 11 -19 16 -19 6 0 10 -68 10 -172 0 -401 11 -699 25 -705 12 -4 14 -64 13 -332 0 -179 -5 -366 -9 -416 -5 -49 -14 -273 -19 -497 -6 -250 -14 -415 -20 -427 -6 -11 -11 -44 -11 -73 0 -31 -6 -62 -14 -74 -8 -12 -18 -45 -22 -74 -4 -31 -21 -78 -40 -111 -18 -32 -35 -67 -39 -78 -3 -12 -10 -21 -15 -21 -5 0 -11 -13 -15 -30 -4 -16 -10 -30 -14 -30 -5 0 -15 -18 -24 -40 -12 -30 -21 -40 -39 -41 -13 0 -36 -2 -53 -4 -16 -2 -66 -6 -110 -9 -110 -7 -276 -25 -284 -30 -4 -3 -34 -7 -66 -11 -33 -3 -69 -9 -80 -13 -11 -3 -23 -7 -27 -8 -5 -1 -9 -3 -10 -4 -2 -1 -18 -3 -35 -5 -18 -1 -54 -13 -80 -25 -50 -23 -251 -79 -315 -87 -21 -3 -38 -8 -38 -12 0 -4 -8 -7 -18 -8 -10 -1 -74 -16 -143 -33 -132 -34 -164 -42 -244 -60 -27 -7 -54 -16 -59 -21 -6 -5 -22 -9 -37 -9 -15 0 -30 -4 -33 -8 -3 -5 -31 -14 -63 -21 -32 -7 -65 -16 -73 -19 -8 -3 -22 -7 -30 -8 -14 -3 -37 -9 -127 -35 -21 -5 -58 -15 -83 -21 -25 -5 -49 -14 -54 -19 -6 -5 -19 -9 -30 -9 -12 0 -48 -9 -81 -20 -67 -22 -157 -47 -225 -62 -25 -6 -49 -14 -54 -19 -6 -5 -21 -9 -35 -9 -15 0 -39 -7 -55 -15 l-30 -16 20 22 c15 16 19 37 20 93 1 39 9 102 18 140 9 39 16 90 14 115 -3 43 -5 46 -32 46 -33 0 -37 -9 -61 -120 -12 -60 -12 -60 -24 -30 -6 17 -16 38 -21 47 -6 10 -10 24 -10 31 0 7 -9 30 -20 52 -11 22 -20 45 -20 52 0 7 -4 13 -10 13 -5 0 -10 9 -10 20 0 16 3 18 18 11 19 -11 302 -81 325 -81 8 0 22 -11 31 -25 9 -14 23 -25 30 -25 8 0 17 -11 20 -24 9 -37 34 -40 74 -10 33 26 40 27 162 28 107 1 131 4 147 19 11 9 22 17 26 17 3 0 18 11 32 24 23 22 24 25 10 40 -16 15 -104 46 -134 46 -9 0 -29 7 -45 15 -15 8 -40 15 -55 15 -14 0 -37 3 -49 7 -21 5 -23 10 -18 42 3 20 12 81 19 136 8 55 15 100 16 100 4 0 12 39 16 75 5 54 15 121 25 165 5 22 12 72 15 110 3 39 10 93 16 120 5 28 11 64 13 80 2 17 7 52 11 80 4 27 9 56 10 65 1 8 4 22 7 30 3 8 11 65 17 125 5 61 17 169 25 240 32 279 35 342 50 895 3 112 -10 470 -20 560 -3 25 -5 53 -5 63 0 9 -4 17 -10 17 -5 0 -9 6 -9 13 0 18 -40 62 -62 70 -14 5 -23 -5 -42 -41 -36 -72 -41 -132 -61 -782 -8 -261 -18 -500 -21 -530 -17 -175 -35 -332 -43 -380 -5 -30 -10 -79 -10 -107 -1 -29 -5 -53 -10 -53 -4 0 -13 -46 -19 -102 -24 -213 -42 -345 -56 -398 -8 -30 -17 -75 -21 -100 -4 -25 -14 -57 -21 -72 -8 -15 -14 -39 -14 -54 0 -20 -4 -25 -16 -20 -9 3 -25 6 -36 6 -15 0 -18 3 -11 13 21 25 46 187 58 372 3 44 8 114 11 155 2 41 6 98 8 125 3 28 7 106 10 175 6 121 11 182 20 245 11 80 26 309 29 447 1 43 4 78 7 78 3 0 6 17 7 38 1 20 9 154 18 297 8 143 17 278 20 300 2 22 9 108 15 190 6 83 13 170 16 195 3 25 8 65 9 90 2 25 7 81 11 125 4 44 6 90 5 103 -1 13 2 28 7 35 8 10 23 146 24 207 0 8 4 33 8 55 16 77 44 424 43 532 -1 137 -39 186 -94 122 -16 -19 -29 -39 -29 -46 0 -6 -5 -13 -11 -15 -5 -2 -14 -19 -19 -38 -5 -19 -18 -66 -28 -105 -11 -38 -27 -122 -37 -185 -9 -63 -21 -133 -27 -155 -5 -21 -12 -82 -15 -135 -3 -52 -9 -99 -13 -105 -4 -5 -11 -53 -14 -105 -4 -52 -9 -108 -11 -125 -3 -16 -11 -124 -20 -240 -17 -245 -34 -441 -45 -540 -4 -38 -8 -124 -9 -189 -1 -66 -4 -122 -6 -126 -10 -16 -16 -79 -21 -250 -4 -102 -10 -189 -14 -195 -3 -5 -7 -44 -8 -85 -1 -41 -7 -124 -12 -185 -5 -60 -12 -191 -15 -290 -4 -98 -8 -182 -10 -186 -10 -16 -55 -205 -55 -231 0 -16 -6 -50 -14 -76 -8 -26 -22 -74 -31 -107 -44 -159 -42 -155 -86 -155 -29 0 -41 5 -46 18 -3 9 -14 37 -25 62 -40 91 -49 114 -104 250 -35 87 -42 102 -65 155 -7 17 -13 32 -14 35 -6 20 -50 121 -78 178 -13 28 -13 92 1 101 15 9 37 74 63 181 13 52 27 97 31 98 4 2 8 20 8 41 0 20 4 41 8 46 12 15 83 341 103 475 5 35 14 69 19 74 6 6 10 33 10 61 0 28 4 55 9 60 5 6 23 98 40 205 17 107 35 211 38 230 4 19 8 40 8 45 1 6 4 17 8 25 3 8 8 40 10 71 3 31 10 65 15 75 6 11 18 64 27 119 9 55 21 114 25 130 5 17 16 74 25 129 13 83 21 105 50 143 l34 44 -34 53 c-36 56 -65 120 -65 142 0 8 -9 33 -20 57 -10 23 -24 62 -29 86 -5 24 -13 47 -18 50 -7 5 -30 59 -37 86 -9 37 -41 135 -52 162 -8 17 -14 36 -14 41 0 6 -10 14 -22 18 -18 5 -14 9 28 23 37 12 50 22 52 38 3 17 -5 26 -34 38 -20 8 -45 15 -55 15 -18 0 -42 31 -37 48 2 6 -10 28 -27 51 -22 30 -37 41 -57 41 -23 0 -30 -8 -48 -46 -11 -26 -20 -57 -20 -69 0 -20 -6 -22 -82 -28 -46 -4 -94 -9 -108 -11 -14 -3 -44 -8 -67 -12 l-43 -7 -1 129 c-1 164 -10 199 -46 176 -16 -10 -44 -140 -50 -232 -3 -41 -10 -81 -15 -88 -6 -7 -10 -31 -10 -55 0 -23 -3 -76 -8 -117 -5 -41 -12 -102 -15 -135 -13 -141 -16 -157 -30 -171 -25 -25 -35 -85 -35 -210 0 -66 -3 -124 -7 -128 -11 -11 -15 -34 -23 -156 -8 -116 -14 -194 -51 -660 -11 -140 -27 -340 -36 -445 -8 -104 -17 -245 -20 -312 l-5 -123 -52 5 c-28 3 -168 12 -311 20 -143 9 -276 20 -295 25 -19 5 -152 9 -294 10 -143 0 -264 4 -270 9 -6 5 -18 8 -26 8 -110 0 -458 31 -595 53 -82 14 -123 19 -172 19 l-41 1 4 38 c2 20 8 100 14 177 6 77 15 178 20 225 5 47 12 123 15 170 3 47 11 139 16 205 9 104 15 221 33 636 2 48 7 115 10 150 3 35 7 150 9 255 4 182 5 192 26 213 19 19 21 29 16 64 -4 23 -14 49 -22 59 -13 14 -19 32 -22 60 -2 14 -52 41 -83 44 -17 2 -38 11 -47 19 -97 89 -97 90 -73 93 57 9 28 60 -38 69 -24 3 -40 11 -40 19 0 13 -30 34 -49 34 -5 0 -17 -8 -27 -17 -12 -12 -37 -18 -83 -21 -360 -18 -388 -23 -375 -67 4 -11 12 -23 18 -28 7 -5 0 -17 -22 -35 -18 -15 -32 -32 -32 -38 0 -7 -7 -14 -15 -18 -20 -7 -19 -60 1 -77 15 -13 16 -62 0 -284 -4 -55 -9 -158 -22 -485 -10 -258 -13 -371 -15 -570 -1 -113 -5 -243 -9 -290 -4 -47 -11 -146 -14 -220 -4 -74 -9 -155 -12 -180 -2 -25 -11 -117 -20 -205 -8 -88 -19 -185 -24 -215 -5 -30 -9 -78 -9 -107 -1 -28 -5 -54 -10 -57 -4 -3 -11 -31 -14 -62 -3 -31 -12 -63 -20 -73 -18 -21 -67 -162 -67 -193 0 -13 -5 -29 -10 -34 -6 -6 -14 -43 -17 -82 -3 -40 -9 -72 -12 -72 -4 0 -8 -14 -9 -32 -2 -17 -9 -64 -16 -102 -8 -39 -19 -105 -25 -146 -6 -41 -19 -118 -28 -170 -8 -52 -18 -134 -20 -182 -3 -49 -8 -88 -13 -88 -4 0 -10 -33 -14 -72 -4 -40 -11 -113 -16 -163 -5 -49 -19 -180 -30 -290 -12 -110 -25 -229 -30 -265 -5 -36 -12 -105 -15 -154 -3 -49 -10 -97 -16 -107 -5 -10 -9 -51 -9 -93 0 -41 -4 -77 -9 -80 -5 -3 -12 -36 -16 -73 -7 -73 -50 -373 -66 -463 -5 -30 -14 -86 -20 -124 -5 -39 -14 -75 -18 -80 -5 -6 -11 -36 -15 -66 -4 -30 -22 -131 -41 -225 -18 -93 -37 -196 -40 -228 -4 -31 -11 -60 -16 -63 -13 -7 -11 -58 2 -71 6 -6 8 -20 4 -32 -6 -18 -11 -20 -47 -14 -38 6 -41 4 -34 -13 23 -55 23 -157 1 -306 l-7 -46 126 -128 c69 -70 158 -163 198 -207 40 -43 128 -135 196 -205 67 -69 122 -128 122 -129 0 -2 33 -38 74 -81 40 -42 120 -126 177 -187 120 -128 322 -328 403 -400 49 -43 56 -54 56 -87 0 -32 4 -39 33 -52 17 -8 52 -18 77 -21 25 -4 54 -12 65 -18 11 -6 42 -11 70 -13 27 -1 84 -14 125 -28 41 -14 82 -26 90 -26 8 0 27 -7 42 -14 16 -8 48 -18 73 -22 25 -3 48 -10 51 -15 3 -5 13 -9 23 -9 14 0 19 15 29 80 6 44 18 93 27 109 19 38 19 65 0 81 -13 11 -12 15 8 30 49 38 85 138 130 360 9 41 21 98 27 125 7 28 14 75 17 105 2 30 8 64 13 75 5 11 23 106 40 210 27 174 38 239 71 440 22 138 43 313 59 495 6 69 17 184 25 255 8 72 16 195 19 275 5 141 12 234 20 275 3 11 5 101 5 199 1 160 3 178 16 160 8 -10 15 -29 15 -41 0 -27 30 -93 42 -93 4 0 8 -15 8 -32 1 -18 7 -60 15 -93 8 -33 15 -85 15 -115 0 -30 9 -107 19 -170 10 -63 22 -155 25 -205 4 -49 11 -126 15 -170 5 -44 9 -87 10 -95 0 -8 8 -78 16 -155 9 -77 20 -189 24 -250 5 -60 14 -139 19 -175 6 -36 13 -112 17 -170 3 -58 8 -127 10 -155 3 -27 7 -99 10 -160 3 -60 8 -130 10 -155 11 -100 24 -311 26 -415 1 -60 6 -118 11 -127 5 -10 11 -185 14 -390 3 -236 8 -376 15 -384 12 -15 -2 -49 -25 -57 -26 -10 -191 -121 -199 -134 -4 -7 -14 -13 -22 -13 -8 0 -18 -6 -22 -12 -7 -11 -48 -46 -137 -118 -37 -30 -136 -142 -211 -240 -59 -77 -155 -262 -155 -299 0 -11 -6 -38 -14 -58 -53 -145 -86 -321 -86 -465 0 -72 34 -243 51 -254 5 -3 9 -13 9 -22 0 -9 6 -28 14 -42 7 -14 23 -45 36 -70 55 -105 148 -220 274 -339 27 -25 58 -54 68 -63 10 -10 20 -18 23 -18 2 0 23 -18 47 -41 47 -45 121 -99 136 -99 6 0 12 -7 16 -15 3 -8 12 -15 20 -15 8 0 22 -7 30 -15 19 -19 261 -135 282 -135 8 0 22 -4 32 -9 57 -30 235 -75 362 -92 272 -36 520 -13 685 62 28 12 53 23 57 23 11 2 171 109 201 136 183 162 375 405 447 566 12 27 28 63 36 79 22 48 71 210 81 265 12 66 14 318 3 360 -6 25 -15 65 -20 90 -4 25 -15 58 -24 74 -8 16 -13 33 -11 37 3 4 -9 33 -25 65 -16 33 -30 65 -30 72 0 7 -6 15 -14 18 -8 3 -17 16 -20 29 -8 30 -60 117 -103 172 -18 23 -33 46 -33 51 0 6 -3 12 -8 14 -4 2 -25 26 -47 53 -54 68 -100 119 -159 174 -27 25 -64 61 -83 79 -90 86 -328 243 -392 259 -14 3 -35 12 -46 19 -11 8 -29 14 -41 14 -12 0 -24 4 -26 10 -3 9 -21 11 -203 28 -158 14 -252 6 -452 -41 -62 -14 -83 -10 -83 20 0 6 -6 16 -12 20 -7 4 -21 24 -31 44 -16 31 -18 67 -20 292 -2 225 0 258 14 269 9 7 61 74 116 148 84 114 130 172 226 290 7 9 28 38 47 65 19 27 40 56 46 65 30 36 140 183 149 198 6 9 12 19 15 22 20 18 70 90 70 99 0 6 4 11 8 11 4 0 32 35 62 77 30 42 63 85 73 95 9 10 17 21 17 26 0 4 10 18 23 32 13 14 32 39 42 55 11 17 34 48 52 71 18 23 33 46 33 53 0 6 4 11 9 11 5 0 24 24 42 53 19 28 37 57 42 62 4 6 38 53 74 105 37 52 69 97 72 100 3 3 11 12 16 21 6 9 35 54 66 100 30 46 84 134 119 194 35 61 76 133 92 160 16 28 42 78 59 112 16 34 33 64 38 67 5 3 24 -4 43 -17 58 -38 95 -57 111 -57 9 0 17 -4 19 -8 1 -4 44 -25 93 -46 50 -21 94 -42 100 -47 5 -5 18 -9 30 -9 12 0 25 -4 31 -9 10 -10 61 -30 164 -62 36 -12 70 -25 75 -29 6 -5 23 -10 40 -12 40 -4 44 -31 9 -60 -15 -13 -32 -28 -38 -34 -6 -5 -19 -13 -28 -17 -10 -3 -18 -11 -18 -17 0 -5 -5 -10 -11 -10 -11 0 -180 -140 -232 -192 -15 -15 -29 -28 -31 -28 -5 0 -64 -52 -160 -141 -34 -31 -81 -74 -105 -95 -24 -21 -52 -47 -62 -56 -10 -9 -64 -58 -121 -109 -339 -302 -545 -502 -1084 -1049 -220 -224 -313 -313 -373 -359 -40 -31 -39 -54 1 -91 25 -23 40 -29 61 -25 33 6 136 72 144 92 3 7 10 13 16 13 10 0 74 62 514 495 302 297 480 470 529 514 27 24 76 69 110 100 33 31 91 83 128 116 37 33 85 77 107 98 21 20 41 37 43 37 2 0 20 15 39 33 19 17 65 59 102 92 109 97 142 127 202 183 30 28 59 52 64 52 4 0 12 6 16 13 4 6 35 34 68 62 74 62 124 107 235 213 48 46 99 89 112 96 30 16 79 10 243 -30 93 -22 166 -35 258 -46 9 -1 17 -6 17 -10 0 -4 11 -8 24 -8 25 0 134 -58 172 -92 11 -10 26 -18 32 -18 7 0 12 -3 12 -7 0 -8 55 -43 66 -42 2 0 24 -14 46 -30 23 -17 48 -31 55 -31 7 0 13 -7 13 -15 0 -8 5 -15 11 -15 6 0 8 -11 5 -28 -7 -34 -1 -43 53 -70 24 -13 50 -29 58 -37 8 -8 20 -15 28 -15 7 0 15 -7 19 -15 3 -8 10 -15 16 -15 6 0 16 -5 23 -10 25 -22 233 -167 257 -180 13 -7 35 -23 49 -36 14 -13 29 -24 34 -24 4 0 13 -5 20 -10 7 -6 35 -27 62 -48 28 -20 52 -40 53 -44 2 -5 10 -8 18 -8 8 0 14 -4 14 -8 0 -5 10 -14 23 -20 12 -7 42 -27 67 -46 25 -19 49 -35 53 -35 5 -1 30 -17 55 -37 120 -91 197 -144 209 -144 7 0 13 -4 13 -8 0 -4 25 -21 56 -37 31 -16 59 -35 61 -42 3 -7 14 -13 24 -13 10 0 19 -4 19 -9 0 -12 154 -71 188 -71 34 0 48 30 30 64 -13 25 -59 76 -69 76 -4 0 -20 12 -36 28 -62 59 -109 98 -125 105 -10 3 -18 11 -18 17 0 5 -5 10 -11 10 -6 0 -28 13 -48 28 -20 16 -44 32 -53 35 -10 4 -18 11 -18 17 0 5 -6 10 -14 10 -8 0 -16 4 -18 8 -4 11 -136 102 -147 102 -6 0 -14 6 -18 13 -4 7 -29 27 -56 45 -26 17 -53 36 -60 42 -6 6 -50 37 -97 69 -47 33 -105 74 -129 91 -24 18 -92 64 -150 103 -116 79 -113 76 -157 112 -18 14 -37 25 -43 25 -6 0 -11 5 -11 10 0 14 -51 59 -67 60 -6 0 -13 4 -15 9 -3 9 -136 101 -145 101 -2 0 -12 7 -20 16 -15 14 -12 15 28 10 185 -25 335 -33 564 -30 285 3 734 22 940 39 28 2 86 7 130 10 44 3 127 11 185 16 58 5 139 12 180 15 41 3 91 9 110 15 19 5 87 14 150 19 105 8 289 33 430 60 30 5 84 15 120 21 36 6 69 15 75 20 5 5 31 9 57 9 26 0 48 4 48 9 0 5 28 13 63 19 34 6 105 21 157 35 149 38 205 46 358 51 l143 4 25 -39 c25 -40 89 -157 108 -196 6 -13 14 -23 19 -23 4 0 7 -5 7 -10 0 -13 148 -270 166 -288 8 -7 14 -20 14 -28 0 -8 4 -14 8 -14 4 0 15 -15 24 -32 8 -18 35 -69 58 -113 23 -44 64 -123 92 -175 27 -52 54 -104 60 -115 6 -11 15 -27 20 -35 4 -8 13 -26 19 -40 5 -14 26 -59 45 -100 20 -41 41 -88 49 -105 7 -16 38 -83 69 -147 31 -64 56 -121 56 -127 0 -5 16 -36 36 -69 19 -33 43 -82 54 -109 l18 -48 -48 -90 c-27 -49 -72 -135 -101 -190 -28 -55 -55 -104 -60 -109 -5 -6 -9 -18 -9 -27 0 -10 -6 -24 -13 -31 -7 -7 -39 -63 -71 -124 -32 -62 -73 -127 -92 -145 -18 -19 -34 -40 -34 -46 0 -17 -112 -17 -128 -1 -22 22 -367 17 -482 -7 -52 -11 -97 -22 -100 -26 -3 -4 -21 -10 -40 -14 -19 -4 -39 -11 -45 -15 -5 -4 -38 -15 -72 -25 -35 -11 -63 -22 -63 -27 0 -4 -7 -8 -15 -8 -14 0 -85 -35 -134 -65 -200 -124 -353 -299 -385 -439 -4 -15 -15 -40 -25 -55 -30 -42 -87 -133 -107 -171 -11 -19 -22 -37 -25 -40 -5 -5 -33 -57 -83 -157 -12 -27 -33 -77 -46 -113 -13 -36 -27 -69 -32 -74 -4 -6 -8 -18 -8 -28 0 -9 -11 -52 -25 -95 -20 -60 -27 -106 -31 -201 -5 -126 5 -188 42 -269 8 -17 14 -37 14 -45 0 -8 4 -18 9 -24 5 -5 22 -31 37 -59 33 -61 85 -127 139 -178 85 -82 121 -114 160 -142 22 -17 44 -36 48 -42 4 -7 15 -13 22 -13 8 0 15 -4 15 -8 0 -5 10 -14 23 -20 12 -6 40 -23 62 -37 22 -14 54 -32 70 -40 17 -9 44 -24 60 -35 56 -36 100 -57 190 -90 50 -18 94 -37 100 -42 5 -4 18 -8 30 -8 11 0 34 -7 50 -16 116 -61 657 -113 875 -85 204 27 294 53 445 129 97 49 117 61 163 99 54 44 232 225 232 235 0 4 6 13 13 20 20 20 77 108 77 118 0 5 6 15 13 22 18 19 77 142 77 161 0 8 5 19 10 22 6 3 10 14 10 23 0 9 7 30 15 46 8 15 15 38 15 51 0 12 6 35 14 51 17 36 37 221 40 368 2 105 -25 313 -43 326 -3 3 -11 23 -17 45 -6 22 -13 46 -15 54 -10 37 -105 218 -126 241 -12 13 -23 28 -23 32 0 3 -6 13 -12 20 -7 7 -38 42 -68 78 -30 36 -62 71 -72 77 -9 7 -31 28 -50 46 -19 18 -63 55 -98 82 -36 27 -67 52 -70 55 -9 11 -189 120 -198 120 -5 0 -19 9 -32 20 -13 11 -31 20 -42 20 -10 0 -18 3 -18 8 0 4 -39 23 -87 42 -49 18 -92 37 -96 41 -5 4 5 26 22 49 17 24 31 49 31 57 0 7 7 16 15 19 8 4 15 14 15 24 0 10 8 26 17 36 18 17 21 23 69 118 14 28 30 58 35 66 5 8 15 26 21 40 7 14 15 27 18 30 3 3 27 48 53 100 83 162 92 175 115 173 16 -2 23 5 31 32 5 19 7 43 4 54 -3 11 4 33 16 50 12 16 21 36 21 44 0 8 7 17 15 21 8 3 15 14 15 25 0 11 4 21 9 23 4 2 30 48 57 103 26 55 50 102 54 105 6 6 90 177 160 325 28 61 55 117 61 125 5 8 12 22 15 30 4 8 20 44 36 80 67 146 88 196 88 208 0 6 4 12 8 14 4 2 20 30 36 63 15 33 53 110 83 170 31 61 61 120 67 132 6 13 14 23 18 23 14 0 58 43 58 57 0 7 4 13 9 13 4 0 14 21 21 48 7 26 21 61 30 77 22 36 35 95 22 95 -11 0 -2 56 32 189 14 57 26 115 26 129 0 13 6 50 14 81 8 31 17 79 21 106 8 67 14 113 20 155 3 19 8 66 11 105 3 38 7 87 10 110 2 22 7 162 10 310 4 149 7 286 8 305 1 19 3 70 4 113 l2 78 118 -6 c167 -9 176 -10 192 -20 8 -5 52 -8 98 -7 l83 2 -6 -108 c-17 -301 -8 -449 55 -822 30 -180 41 -254 54 -355 8 -60 18 -128 21 -150 3 -22 8 -65 11 -95 3 -30 12 -80 20 -110 8 -30 14 -97 14 -150 0 -53 4 -100 10 -106 8 -8 17 -152 35 -594 2 -63 7 -208 10 -321 5 -185 4 -207 -10 -213 -17 -6 -16 -49 1 -151 2 -16 7 -73 10 -125 7 -101 17 -123 59 -134 l24 -6 -24 -36 c-14 -20 -25 -44 -25 -54 0 -51 95 -69 127 -24 10 14 28 37 40 52 l22 27 24 -27 c29 -33 169 -83 262 -93 33 -4 77 -8 97 -11 65 -7 139 30 166 82 9 18 7 25 -18 49 -17 16 -30 33 -30 38 0 16 71 95 214 241 141 144 361 373 479 497 118 127 145 154 183 190 83 75 290 308 333 374 14 22 35 50 45 62 11 13 35 58 53 100 19 43 41 92 48 110 8 17 15 36 15 42 0 6 3 11 8 11 4 0 12 8 17 19 17 32 90 136 98 139 4 2 7 8 7 13 0 6 17 33 39 62 21 29 48 70 60 92 29 54 44 78 58 90 19 17 53 79 53 98 0 31 -38 59 -76 55 -19 -2 -34 -1 -34 3 0 4 -9 69 -21 146 -13 81 -21 179 -20 238 2 96 -7 179 -29 275 -6 25 -17 79 -25 120 -8 41 -34 174 -57 295 -23 121 -46 222 -50 223 -5 2 -8 28 -8 58 0 30 -4 54 -9 54 -5 0 -12 26 -16 58 -3 31 -12 82 -20 112 -7 30 -28 136 -45 235 -18 99 -36 184 -41 190 -5 5 -9 31 -9 57 0 27 -4 56 -10 66 -9 16 -47 247 -70 437 -7 50 -16 99 -20 110 -5 11 -11 72 -15 135 -3 63 -10 116 -15 118 -6 2 -10 39 -10 83 0 44 -4 87 -9 97 -5 9 -19 100 -31 202 -12 102 -28 211 -36 243 -7 32 -14 96 -14 142 0 46 -4 86 -9 89 -5 3 -10 70 -10 149 -1 177 -10 324 -21 357 -5 14 -11 68 -14 120 -3 52 -19 232 -36 400 -18 168 -36 413 -42 545 -5 132 -13 242 -17 245 -5 3 -11 139 -13 302 -3 175 -10 303 -15 310 -6 7 -13 65 -17 128 -4 63 -9 130 -12 148 -5 25 -3 32 9 32 23 0 67 47 67 71 0 11 -8 22 -17 25 -10 4 -34 13 -53 22 -40 18 -124 19 -190 1 -115 -29 -157 -22 -146 26 7 26 -2 39 -41 59 -41 21 -66 20 -85 -1z m303 -340 c0 -54 0 -144 -1 -201 -1 -68 3 -108 10 -118 9 -10 9 -14 1 -14 -8 0 -9 -5 -2 -18 5 -10 11 -64 12 -120 1 -56 5 -121 9 -144 4 -24 11 -97 14 -163 21 -386 26 -487 31 -550 8 -104 37 -416 41 -450 3 -16 8 -91 13 -165 5 -74 14 -171 19 -215 6 -44 13 -128 16 -186 3 -58 10 -150 16 -205 6 -54 15 -139 20 -189 5 -49 12 -159 16 -244 5 -141 5 -153 -11 -147 -9 3 -129 6 -266 6 l-249 0 0 46 c0 25 -5 77 -11 116 -6 39 -8 95 -4 124 6 52 8 54 36 54 28 0 78 40 79 64 0 13 -32 35 -52 36 -9 0 -19 4 -23 9 -3 6 1 79 9 163 8 84 18 198 22 253 4 55 8 114 10 130 7 63 25 662 28 940 7 510 17 789 43 1187 l6 87 41 4 c22 2 60 4 84 5 l42 2 1 -97z m-3199 57 l60 0 -7 -57 c-12 -86 -9 -529 4 -758 7 -110 14 -267 17 -350 3 -82 9 -220 13 -305 9 -183 8 -1090 -2 -1170 -6 -57 -21 -393 -21 -492 0 -32 -3 -58 -6 -58 -3 0 -56 -11 -117 -24 l-113 -24 0 153 c0 114 3 154 13 158 9 3 9 7 -2 20 -10 13 -12 48 -8 164 3 82 8 164 10 184 3 20 8 144 11 275 4 131 8 309 11 394 2 85 5 341 5 567 l1 413 24 16 c23 15 34 44 17 44 -4 0 -16 14 -26 31 -18 30 -18 49 -11 303 4 149 9 285 10 301 2 17 6 68 10 115 8 104 11 114 31 106 9 -3 43 -6 76 -6z m2827 -227 c0 -76 -5 -146 -10 -155 -7 -12 -6 -18 1 -18 6 0 9 -4 6 -8 -3 -5 -8 -53 -11 -108 -4 -54 -8 -119 -10 -144 -2 -25 -5 -319 -6 -655 -1 -335 -6 -671 -10 -745 -18 -324 -21 -368 -30 -414 -5 -27 -9 -90 -9 -140 l0 -92 -35 4 -35 4 1 57 c1 135 17 291 30 307 17 21 17 407 0 629 -6 77 -13 194 -16 260 -5 122 -14 256 -21 310 -14 113 -19 272 -19 553 l1 323 84 84 c47 47 86 85 88 85 1 0 2 -62 1 -137z m-3206 -101 l-6 -121 -40 57 c-31 45 -37 59 -28 72 6 8 17 26 24 40 6 14 20 34 29 44 10 11 18 24 18 30 0 5 2 7 5 4 3 -2 2 -59 -2 -126z m-3278 -198 c94 -8 178 -20 187 -25 10 -5 26 -9 35 -9 10 0 23 -8 30 -19 17 -27 108 -39 292 -40 84 -1 156 -3 160 -5 3 -2 51 -7 106 -11 114 -7 212 -20 238 -30 10 -4 17 -3 17 5 0 13 108 4 124 -11 6 -5 34 -9 63 -9 29 0 53 -4 53 -9 0 -5 30 -13 68 -16 37 -4 72 -11 77 -15 6 -4 37 -15 70 -24 33 -9 69 -21 80 -26 42 -19 101 -44 120 -51 15 -5 10 -7 -17 -8 -30 -1 -38 -5 -38 -20 0 -16 12 -21 73 -31 139 -23 177 -31 177 -41 0 -5 9 -9 21 -9 45 0 159 -82 159 -115 0 -22 -143 -162 -220 -216 -80 -56 -170 -109 -230 -133 -25 -10 -67 -29 -95 -42 -112 -52 -245 -89 -396 -109 -61 -8 -115 -12 -120 -10 -4 3 -11 1 -14 -5 -10 -16 -222 -11 -235 5 -11 13 -6 177 6 209 3 7 1 17 -5 21 -6 3 -11 28 -11 55 0 42 -5 53 -38 88 -40 41 -142 112 -162 112 -7 0 -24 6 -38 14 -69 38 -304 38 -387 1 -54 -24 -100 -43 -122 -50 -13 -3 -23 -11 -23 -16 0 -5 -5 -9 -11 -9 -7 0 -47 -26 -90 -57 -82 -61 -123 -118 -98 -134 8 -5 10 -9 4 -9 -5 -1 6 -9 25 -18 l35 -17 3 -93 3 -94 -33 7 c-45 10 -266 83 -305 101 -17 8 -40 14 -50 14 -10 0 -23 4 -29 9 -5 4 -56 23 -114 40 -58 18 -119 39 -137 47 -17 8 -35 14 -41 14 -5 0 -23 7 -38 15 -16 8 -39 15 -51 15 -13 0 -23 4 -23 9 0 5 -10 13 -22 17 -30 9 -192 85 -198 93 -3 3 -25 17 -50 30 -125 66 -154 172 -72 259 6 7 12 17 12 22 0 15 116 125 153 145 20 11 37 23 37 27 0 5 6 8 14 8 8 0 16 3 18 8 2 6 93 53 178 92 9 4 35 11 58 15 23 4 42 11 42 17 0 6 12 8 31 4 18 -3 37 -2 43 3 7 6 45 13 86 17 41 3 77 8 79 10 11 10 386 2 536 -12z m-3379 -321 c-9 -112 -16 -259 -21 -438 -5 -186 -23 -530 -30 -585 -2 -19 -9 -105 -16 -190 -6 -85 -14 -164 -19 -175 -5 -11 -12 -74 -15 -140 -4 -66 -10 -124 -14 -130 -5 -5 -11 -46 -15 -90 -3 -43 -11 -104 -16 -135 -15 -78 -49 -282 -61 -365 -6 -38 -14 -74 -19 -80 -4 -5 -11 -32 -15 -60 -4 -27 -11 -54 -15 -60 -4 -5 -13 -36 -20 -69 -8 -40 -21 -68 -41 -89 -30 -31 -38 -72 -16 -80 9 -3 8 -13 -5 -41 -10 -20 -18 -48 -18 -62 0 -24 -3 -25 -47 -22 l-48 3 -3 264 c-1 149 2 268 7 275 5 6 12 99 16 206 4 107 9 198 11 202 5 8 7 28 24 238 6 74 17 205 25 290 12 132 23 285 30 431 1 19 5 41 10 49 13 21 9 286 -5 320 -10 23 -10 40 -1 73 6 23 16 107 22 187 6 80 14 179 18 220 l6 75 75 8 c41 4 83 12 93 17 10 6 21 9 25 7 5 -4 86 6 100 12 2 0 1 -29 -2 -66z m-3016 15 c-4 -18 -11 -80 -14 -138 -4 -58 -8 -115 -10 -125 -4 -21 -12 -198 -21 -440 -5 -144 -12 -291 -21 -430 -2 -44 -7 -132 -9 -195 -7 -170 -25 -490 -30 -530 -7 -53 -13 -151 -20 -303 -4 -76 -11 -152 -17 -170 -5 -17 -12 -159 -15 -314 l-6 -282 -31 6 c-17 3 -44 11 -61 19 -16 7 -41 14 -55 16 -23 3 -25 8 -28 58 -2 30 1 93 7 140 30 229 55 808 66 1520 4 195 8 378 10 405 3 28 9 102 15 165 5 63 10 145 10 182 0 37 5 68 10 70 16 5 26 274 11 291 -9 12 -1 17 46 32 32 10 62 21 68 26 5 5 20 9 35 9 14 0 32 5 40 10 25 16 29 12 20 -22z m215 -102 c17 -32 25 -59 22 -75 -21 -112 -27 -160 -36 -298 -10 -149 -33 -682 -46 -1073 -4 -96 -11 -197 -16 -223 -5 -26 -9 -119 -9 -205 0 -86 -3 -187 -7 -224 l-6 -68 -42 0 -43 0 9 38 c5 20 9 64 9 97 0 33 4 96 10 140 5 44 12 141 15 215 3 74 8 153 10 175 5 54 13 200 21 370 4 77 8 163 9 190 2 28 6 127 10 220 8 232 15 383 20 425 2 19 7 89 10 155 8 153 15 210 25 199 4 -5 20 -31 35 -58z m6710 -264 c28 -9 69 -30 92 -46 l42 -28 -5 -207 c-4 -143 -9 -211 -18 -221 -9 -11 -13 -71 -15 -204 -1 -104 -6 -197 -11 -207 -13 -23 -13 -85 0 -109 13 -25 14 -1572 1 -1617 -5 -17 -12 -209 -16 -425 -3 -216 -11 -417 -16 -447 -5 -30 -9 -68 -9 -85 l0 -31 -102 7 c-129 8 -427 10 -491 2 l-49 -6 6 29 c11 51 26 376 27 548 0 94 4 211 9 260 11 114 22 533 21 872 0 156 4 265 9 268 6 4 10 242 10 621 0 338 3 614 8 614 4 0 7 71 7 158 l0 157 50 24 c28 13 67 32 88 42 21 11 48 19 60 19 13 0 27 4 33 9 23 24 203 25 269 3z m-3710 -97 c8 -11 23 -46 35 -77 20 -53 20 -60 6 -115 -17 -67 -44 -217 -56 -316 -5 -38 -13 -83 -19 -100 -5 -18 -15 -78 -21 -135 -7 -56 -17 -105 -23 -109 -5 -3 -8 -2 -5 3 6 9 12 72 23 219 3 39 7 102 10 140 3 39 8 117 11 175 4 58 7 116 9 130 1 14 3 75 5 135 1 61 5 101 7 90 3 -10 11 -28 18 -40z m6500 -325 c-2 -4 -7 -191 -10 -416 -3 -225 -9 -461 -12 -524 l-7 -115 -8 70 c-16 146 -28 285 -38 442 -6 90 -15 185 -21 213 -10 45 -7 61 27 177 20 71 42 147 48 171 10 41 11 42 18 16 4 -15 5 -30 3 -34z m-473 -767 c3 -120 1 -143 -11 -143 -8 0 -23 -7 -33 -17 -17 -15 -18 -15 -19 13 0 16 -2 40 -4 54 -1 14 -6 84 -9 155 -4 72 -9 144 -11 160 -3 17 -7 48 -9 70 -2 22 -6 46 -8 54 -1 8 17 29 42 49 l45 35 7 -144 c3 -79 8 -208 10 -286z m-6105 180 c-3 -10 -5 -2 -5 17 0 19 2 27 5 18 2 -10 2 -26 0 -35z m6388 -293 c8 -102 17 -196 20 -210 3 -14 8 -126 11 -250 3 -124 9 -236 13 -250 12 -37 6 -117 -12 -180 -9 -30 -30 -111 -47 -180 -45 -180 -70 -272 -80 -295 -5 -11 -11 -37 -15 -59 -3 -21 -10 -46 -15 -55 -5 -9 -14 -38 -22 -66 -13 -49 -13 -46 -20 115 -19 440 -26 560 -36 615 -6 33 -13 139 -15 236 -4 154 -2 182 14 225 11 27 19 59 19 71 0 12 4 23 8 25 8 3 21 42 84 253 11 39 27 87 34 108 8 20 14 51 14 67 0 16 5 32 10 35 6 3 11 16 12 28 2 30 7 -17 23 -233z m2370 -244 c28 -2 109 -7 180 -11 72 -3 166 -10 210 -15 44 -5 118 -12 165 -15 47 -4 120 -13 164 -21 43 -8 101 -14 130 -14 l51 0 -12 -147 c-6 -82 -12 -148 -12 -149 -2 -2 -155 -16 -176 -16 -11 0 -64 3 -118 7 -72 6 -97 11 -93 21 8 20 -19 25 -174 35 -80 5 -167 14 -195 20 -108 23 -1044 -3 -1280 -36 -94 -13 -338 -45 -346 -45 -15 0 -11 370 4 375 6 2 82 9 167 14 146 9 1227 7 1335 -3z m-2655 -636 c6 -91 13 -191 15 -222 2 -32 6 -61 8 -65 3 -5 7 -125 9 -267 2 -201 0 -260 -9 -263 -15 -5 -17 -59 -3 -68 6 -4 7 -12 4 -18 -4 -7 -4 -9 1 -5 4 4 13 0 20 -8 9 -13 8 -26 -3 -58 -14 -39 -17 -41 -49 -38 l-33 4 0 607 c0 334 3 611 8 615 12 13 20 -41 32 -214z m2678 158 c-2 -9 31 -16 112 -25 175 -18 345 -34 448 -41 l93 -7 -51 -100 c-28 -55 -59 -113 -69 -130 -10 -16 -30 -52 -46 -80 -15 -27 -53 -95 -85 -150 -32 -55 -68 -118 -80 -140 -13 -22 -31 -53 -41 -70 -11 -16 -22 -37 -26 -45 -4 -8 -31 -58 -61 -110 -30 -52 -69 -122 -86 -155 -18 -33 -39 -71 -48 -85 -21 -34 -74 -131 -115 -210 -18 -36 -36 -70 -40 -76 -14 -19 -53 -88 -76 -134 -12 -25 -24 -47 -27 -50 -3 -3 -19 -27 -35 -55 -15 -27 -32 -53 -37 -56 -5 -3 -12 -24 -15 -47 -4 -33 -2 -41 13 -45 11 -3 -20 -5 -68 -6 -48 0 -89 3 -92 8 -3 5 -80 12 -170 16 l-165 7 -3 78 c-3 73 -2 78 25 100 15 13 27 33 27 44 0 21 -37 66 -54 66 -6 0 -26 17 -44 37 -27 32 -35 36 -51 26 -13 -8 -21 -9 -30 0 -6 6 -59 14 -118 18 -257 18 -491 43 -703 74 -58 9 -139 20 -180 26 -41 6 -79 14 -85 19 -5 4 -44 12 -85 15 -41 4 -80 11 -85 15 -6 5 -53 13 -105 19 -102 12 -217 35 -227 45 -4 4 -1 12 5 18 7 7 12 23 12 38 0 14 7 34 15 44 8 11 15 35 15 53 0 18 3 33 8 33 4 0 16 30 26 68 26 94 56 193 65 217 5 11 14 40 20 65 7 25 25 92 40 150 16 58 39 149 51 203 22 92 31 110 45 87 3 -5 15 -10 26 -10 10 0 19 -4 19 -9 0 -5 11 -8 24 -8 18 0 28 8 37 28 6 16 15 29 20 29 5 0 9 9 9 20 0 17 7 20 49 20 28 0 53 5 56 10 4 6 23 10 43 10 56 -1 142 11 148 21 8 14 58 10 91 -6 36 -18 56 -12 71 19 10 23 30 27 237 52 22 3 69 9 105 14 36 5 99 12 140 15 92 7 149 13 220 24 30 4 243 9 473 10 328 1 417 -1 415 -11z m-11333 -49 c241 -26 473 -40 825 -49 212 -6 399 -15 415 -20 17 -5 149 -13 293 -16 l262 -7 0 -124 0 -124 -47 7 c-27 3 -53 10 -58 15 -6 4 -46 11 -90 15 -44 4 -82 10 -85 14 -3 4 -34 12 -70 18 -36 6 -94 17 -130 25 -36 8 -121 24 -190 36 -69 12 -138 27 -155 32 -16 6 -70 13 -118 16 -48 3 -90 10 -93 15 -3 4 -20 8 -37 8 -18 0 -77 11 -132 25 -61 15 -129 25 -175 25 -115 0 -488 -45 -505 -61 -5 -5 -26 -9 -47 -9 -21 0 -55 -7 -75 -15 -21 -8 -76 -21 -122 -30 -47 -8 -120 -25 -164 -37 -64 -18 -80 -19 -87 -8 -4 7 -6 18 -4 24 2 6 6 36 9 66 2 30 8 80 11 110 l6 55 42 -3 c22 -1 77 2 121 7 85 10 253 6 400 -10z m12828 -29 l57 0 0 -44 c0 -66 45 -102 67 -54 8 18 11 2 17 -77 4 -55 21 -206 38 -335 16 -129 34 -264 38 -300 5 -36 16 -105 24 -154 9 -49 16 -101 16 -115 0 -15 4 -31 9 -36 5 -6 14 -46 20 -90 6 -44 20 -127 31 -185 10 -58 28 -152 38 -210 11 -58 25 -118 31 -133 6 -16 11 -45 11 -65 0 -21 5 -53 11 -72 5 -19 14 -60 19 -90 5 -30 20 -120 35 -200 26 -150 41 -237 48 -280 2 -14 7 -32 10 -40 3 -8 10 -62 16 -120 6 -58 19 -177 30 -265 11 -89 22 -204 26 -257 l7 -97 -39 -11 c-37 -12 -363 -27 -363 -17 0 2 13 33 29 68 40 87 49 149 24 172 -11 9 -33 20 -50 23 -25 5 -35 1 -56 -22 -14 -15 -28 -38 -32 -52 -7 -30 -34 -60 -36 -40 -1 7 -2 27 -3 43 -11 142 -20 216 -27 221 -5 3 -9 31 -10 62 0 31 -5 80 -10 107 -5 28 -16 102 -24 165 -13 101 -42 295 -60 400 -3 19 -10 62 -15 95 -6 33 -17 94 -26 135 -8 41 -20 100 -26 130 -6 30 -23 107 -38 170 -16 63 -31 135 -34 159 -4 24 -16 71 -28 105 -11 33 -24 77 -29 96 -4 19 -22 96 -39 170 -18 74 -36 154 -41 178 -5 23 -12 50 -17 60 -5 9 -13 38 -16 65 -4 26 -11 47 -17 47 -5 0 -9 11 -9 24 0 14 -9 62 -21 108 -11 46 -22 126 -24 178 -2 52 -8 155 -14 229 -6 74 -9 136 -8 138 8 7 277 21 337 17 36 -2 91 -4 123 -4z m-650 -227 c15 -13 22 -28 21 -53 -2 -98 32 -308 72 -452 13 -48 24 -96 24 -108 0 -11 4 -28 10 -38 5 -9 23 -78 40 -152 16 -74 36 -157 44 -185 8 -27 22 -79 31 -115 9 -36 21 -81 26 -100 14 -52 44 -193 65 -300 10 -52 23 -98 28 -101 5 -4 6 -19 4 -33 -3 -15 2 -57 12 -94 19 -75 34 -153 65 -347 7 -49 17 -106 20 -125 3 -19 10 -73 16 -120 5 -47 14 -93 19 -102 6 -10 10 -39 10 -65 1 -27 5 -68 11 -93 12 -55 26 -138 33 -205 3 -27 13 -97 21 -155 9 -58 17 -121 20 -140 4 -31 -4 -46 -81 -145 -98 -128 -133 -172 -154 -195 -39 -42 -129 -149 -156 -185 -16 -21 -36 -46 -44 -55 -8 -9 -33 -38 -55 -65 -22 -27 -47 -56 -55 -65 -8 -8 -28 -34 -44 -55 -16 -22 -53 -70 -83 -106 -29 -36 -53 -71 -53 -78 0 -6 -4 -11 -8 -11 -15 0 -266 -366 -308 -449 -4 -7 -18 -25 -30 -39 -13 -14 -24 -29 -24 -35 0 -5 -13 -29 -30 -54 -16 -24 -30 -46 -30 -49 0 -2 -11 -23 -26 -45 -32 -52 -61 -102 -93 -164 -14 -27 -28 -52 -32 -55 -3 -3 -16 -24 -28 -47 -12 -24 -23 -43 -24 -43 -2 0 -4 26 -5 59 -2 50 1 59 17 64 15 4 21 18 27 63 17 143 -15 1088 -41 1179 -3 11 -10 92 -15 180 -5 88 -14 192 -19 230 -6 39 -22 167 -36 285 -27 221 -48 374 -66 470 -6 30 -15 102 -20 160 -5 58 -13 128 -18 155 -6 28 -10 132 -10 231 -1 167 -3 183 -21 207 -17 22 -20 35 -14 74 3 26 1 74 -5 106 -10 54 -9 61 12 90 12 18 25 34 28 37 8 7 100 155 128 205 12 22 32 58 46 80 13 22 45 81 70 130 63 121 78 147 93 163 6 7 12 19 12 27 0 7 3 15 8 17 4 2 17 23 29 48 33 66 76 142 91 158 6 7 12 20 12 28 0 8 4 14 8 14 5 0 17 19 27 43 10 23 25 48 32 55 7 7 13 20 13 28 0 8 4 14 10 14 5 0 13 12 16 28 4 15 13 32 19 37 7 6 26 35 42 65 41 76 57 104 63 110 3 3 11 16 18 30 7 14 25 48 41 75 17 28 40 70 52 95 13 25 28 50 35 57 6 7 22 38 35 69 l24 57 3 -91 c2 -80 5 -93 25 -109z m-11767 -18 c10 -10 35 -15 73 -15 81 0 359 -28 401 -40 19 -5 54 -10 77 -10 24 0 43 -4 43 -9 0 -5 30 -12 68 -16 37 -3 76 -10 87 -15 11 -5 94 -23 185 -41 91 -17 185 -38 210 -45 25 -8 64 -14 87 -14 23 0 43 -4 45 -10 9 -27 335 -26 362 1 6 5 17 9 25 9 8 0 23 7 33 16 14 14 20 14 33 4 8 -7 22 -10 30 -6 10 4 21 -8 35 -39 11 -24 20 -49 20 -55 0 -5 4 -18 9 -28 25 -45 71 -156 71 -168 0 -8 5 -14 10 -14 6 0 10 -8 10 -17 0 -9 8 -35 18 -57 10 -23 33 -77 52 -121 18 -44 43 -104 56 -133 13 -29 24 -56 24 -60 0 -5 11 -30 24 -58 l24 -49 -22 -2 c-11 -1 -131 -4 -266 -7 -135 -2 -258 -6 -275 -9 -16 -3 -59 -8 -95 -12 -60 -6 -136 -18 -310 -49 -36 -6 -69 -14 -75 -17 -5 -4 -35 -10 -65 -14 -30 -4 -60 -11 -66 -16 -13 -10 -125 -22 -389 -40 l-170 -12 -32 -36 c-20 -22 -33 -47 -33 -63 0 -15 -4 -29 -9 -32 -5 -3 -12 -26 -16 -52 -3 -25 -9 -56 -11 -67 -16 -79 -23 -189 -24 -372 l0 -210 -79 -2 c-43 0 -89 -7 -102 -13 -20 -11 -25 -10 -38 11 -9 13 -24 32 -33 41 -10 10 -18 20 -18 23 0 8 -73 117 -92 139 -10 11 -18 26 -18 33 0 8 -7 16 -15 19 -8 4 -15 12 -15 19 0 8 -6 20 -13 27 -7 7 -27 38 -45 69 -18 31 -39 62 -47 69 -8 7 -15 19 -15 26 0 8 -3 14 -8 14 -4 0 -13 15 -21 33 -8 17 -26 50 -40 72 -14 22 -36 61 -50 87 -72 132 -84 153 -97 166 -8 7 -14 19 -14 26 0 7 -9 25 -20 39 -11 14 -20 31 -20 38 0 7 -6 20 -13 28 -7 9 -30 54 -51 101 -22 47 -56 121 -77 165 -53 113 -91 198 -93 210 -9 40 -31 95 -38 95 -5 0 -6 5 -3 10 3 6 2 10 -4 10 -5 0 -12 14 -16 30 -4 17 -11 30 -16 30 -5 0 -9 6 -9 12 0 7 -14 42 -31 78 -25 54 -40 72 -77 95 l-47 28 30 8 c114 29 175 41 208 43 21 1 41 7 45 13 4 6 32 14 62 18 30 4 60 11 65 15 6 4 33 10 60 14 28 3 70 10 95 15 112 21 241 41 304 45 38 3 71 8 74 11 11 11 64 4 78 -10z m8021 -763 c-10 -5 -53 43 -73 81 -8 15 -19 27 -24 27 -6 0 -10 6 -10 13 0 6 -9 23 -19 36 -17 22 -18 29 -6 67 7 24 10 45 7 48 -3 4 0 6 6 6 7 0 12 12 12 28 0 15 6 39 14 54 8 15 17 42 21 60 4 18 11 38 16 44 4 5 15 35 23 65 8 30 19 65 23 79 5 14 10 -112 13 -290 3 -173 1 -317 -3 -318z m-9267 383 c41 -10 78 -21 83 -24 4 -4 -1 -43 -12 -87 -24 -102 -39 -201 -51 -344 -6 -63 -15 -131 -20 -150 -6 -19 -10 -66 -11 -105 0 -38 -5 -97 -10 -130 -5 -33 -16 -118 -24 -190 -9 -71 -17 -146 -20 -165 -2 -19 -7 -56 -10 -82 -2 -26 -12 -102 -20 -170 -9 -68 -20 -159 -25 -203 -5 -44 -16 -120 -25 -170 -8 -49 -15 -107 -15 -127 0 -20 -4 -39 -9 -42 -5 -3 -12 -36 -15 -73 -4 -38 -13 -97 -21 -133 -8 -36 -23 -117 -35 -180 -11 -63 -30 -154 -40 -202 -11 -48 -20 -100 -20 -117 0 -16 -4 -32 -9 -36 -6 -3 -13 -27 -16 -53 -4 -26 -10 -58 -15 -72 -4 -14 -13 -50 -19 -80 -6 -30 -23 -104 -37 -165 -14 -60 -30 -137 -35 -170 -5 -33 -14 -68 -19 -77 -6 -10 -10 -28 -10 -40 -1 -30 -24 -115 -34 -125 -4 -4 -13 0 -20 9 -12 16 -56 38 -77 38 -5 0 -15 -11 -21 -25 -10 -23 -17 -25 -72 -25 -95 0 -136 10 -136 31 0 10 4 20 9 23 5 3 12 22 15 41 4 19 11 35 15 35 5 0 11 15 13 33 6 42 12 61 19 67 4 3 21 79 39 170 18 91 36 170 40 175 4 6 10 41 14 78 4 38 11 76 16 85 5 9 14 44 19 77 6 33 23 134 40 225 16 91 33 192 37 225 5 33 9 65 10 70 0 6 4 17 7 25 3 8 8 53 11 100 3 47 10 100 15 118 6 18 13 65 16 105 3 40 10 101 15 137 5 36 14 115 20 175 6 61 16 144 21 185 15 112 17 128 24 210 3 41 10 93 15 115 6 22 14 85 19 140 6 55 12 114 15 130 3 17 8 62 11 100 4 39 11 86 15 105 5 19 12 55 15 80 19 137 55 331 66 351 5 10 9 27 9 38 0 29 15 34 49 16 44 -22 50 -20 74 34 13 31 25 47 32 42 5 -5 44 -16 85 -26z m314 -208 c25 -64 46 -122 46 -127 0 -6 5 -10 10 -10 6 0 10 -7 10 -17 0 -16 8 -33 84 -194 20 -42 36 -82 36 -88 0 -7 5 -9 10 -6 6 3 10 -3 10 -13 0 -11 7 -25 15 -32 8 -7 15 -17 15 -22 0 -16 63 -138 72 -138 4 0 8 -5 8 -11 0 -6 22 -48 49 -93 27 -44 61 -105 76 -133 15 -29 30 -53 34 -53 3 0 15 -19 26 -43 11 -23 23 -44 26 -47 4 -3 21 -30 39 -60 18 -30 40 -63 48 -73 16 -18 22 -28 59 -93 12 -22 33 -52 47 -68 14 -16 26 -35 26 -43 0 -7 4 -13 8 -13 5 0 27 -29 49 -64 35 -55 39 -67 27 -77 -27 -23 -16 -53 29 -77 23 -12 47 -22 52 -22 6 0 17 -10 25 -21 8 -12 25 -34 38 -49 12 -15 22 -31 22 -35 0 -3 6 -13 14 -20 15 -15 13 -75 -4 -195 -4 -30 -9 -147 -9 -259 -1 -113 -4 -207 -6 -210 -3 -6 -8 -67 -25 -316 -5 -77 -12 -158 -14 -180 -3 -22 -12 -116 -21 -210 -9 -93 -18 -186 -20 -205 -19 -162 -28 -233 -36 -280 -5 -30 -16 -102 -23 -160 -8 -58 -21 -143 -29 -190 -19 -102 -38 -215 -43 -253 -2 -15 -8 -56 -14 -90 -6 -34 -16 -91 -21 -127 -6 -36 -15 -69 -19 -75 -4 -5 -11 -44 -15 -85 -4 -43 -15 -89 -25 -107 -11 -18 -24 -67 -30 -110 -6 -42 -14 -81 -18 -85 -4 -4 -30 14 -58 40 -29 26 -85 78 -125 115 -41 38 -96 89 -124 114 -27 25 -87 81 -132 124 -45 44 -83 79 -86 79 -13 0 -306 309 -429 451 -13 15 -36 42 -53 60 -16 19 -50 59 -75 89 -24 30 -53 62 -62 71 -10 9 -18 20 -18 24 0 4 -14 21 -30 37 -17 15 -30 31 -30 34 0 4 -11 17 -25 30 -15 14 -22 29 -19 38 4 11 -2 19 -19 25 -31 12 -44 31 -28 41 7 4 14 37 16 76 2 38 6 80 9 94 35 164 82 356 88 360 3 3 10 30 13 60 4 30 10 64 15 75 4 11 13 45 19 75 6 30 20 96 32 145 11 50 22 99 25 110 11 59 27 123 36 144 5 13 12 54 15 90 3 36 9 71 13 76 5 6 13 42 19 80 21 134 60 350 70 395 6 25 11 68 11 97 0 28 4 54 9 57 5 3 12 43 16 88 3 46 10 108 15 138 9 59 11 71 35 280 23 201 34 294 50 406 8 56 15 131 15 166 0 36 3 68 7 71 6 7 11 32 17 102 1 22 14 146 26 276 l24 236 17 -36 c10 -20 38 -89 63 -154z m8758 -269 c16 -16 101 -58 117 -58 6 0 11 -4 11 -9 0 -5 16 -13 36 -18 l37 -8 4 -134 4 -134 -111 6 c-61 3 -118 11 -125 17 -8 7 -19 9 -25 5 -21 -13 -32 39 -20 96 6 30 15 77 19 104 8 48 33 145 37 145 2 0 9 -6 16 -12z m652 -223 c176 -38 270 -55 301 -55 19 0 37 -4 40 -10 4 -6 -19 -11 -62 -12 -101 -2 -137 -5 -257 -17 -159 -16 -165 -16 -159 12 3 12 11 36 19 54 8 17 14 36 14 43 0 7 7 10 16 6 9 -3 48 -13 88 -21z m-5830 -136 c-9 -35 -20 -68 -24 -72 -4 -4 -40 2 -81 14 -41 12 -87 23 -104 26 -64 9 -75 14 -75 31 0 16 14 20 88 30 125 16 191 27 199 35 13 14 12 0 -3 -64z m-799 -112 c55 -9 151 -27 214 -39 113 -22 113 -22 129 -58 28 -65 32 -75 66 -167 19 -50 39 -100 45 -112 6 -12 15 -29 19 -38 5 -10 21 -40 35 -66 15 -26 27 -49 27 -51 0 -2 -35 3 -77 11 -80 15 -596 21 -734 9 -240 -21 -315 -29 -324 -36 -5 -4 -44 -10 -85 -13 -76 -7 -93 -9 -120 -20 -14 -5 -87 -13 -215 -23 -33 -3 -80 -9 -105 -14 -43 -8 -104 -16 -200 -26 -25 -3 -51 -7 -57 -9 -10 -3 -13 30 -13 146 0 152 5 177 50 249 5 8 26 50 46 93 24 50 43 77 54 77 9 0 20 4 26 9 9 10 36 17 189 52 179 41 256 47 600 44 248 -1 355 -6 430 -18z m7965 -10 l85 -4 22 -44 c12 -24 22 -48 22 -54 1 -7 -178 -10 -517 -11 -503 0 -937 -16 -956 -35 -6 -5 -52 -9 -102 -9 -51 0 -96 -4 -99 -10 -8 -13 -65 -13 -65 1 0 6 7 17 15 25 8 9 15 26 15 40 0 13 5 24 10 24 6 0 10 7 10 15 0 11 12 15 48 15 26 0 76 5 112 10 36 5 97 12 135 16 39 3 81 8 95 9 14 2 133 7 265 11 132 3 241 7 242 8 4 3 588 -3 663 -7z m-4240 -116 c80 -6 249 -13 375 -15 127 -2 302 -9 390 -16 141 -10 199 -15 360 -34 22 -3 84 -7 139 -10 54 -3 113 -10 130 -15 17 -6 105 -19 196 -31 237 -30 492 -69 515 -80 11 -4 49 -11 84 -14 36 -3 67 -9 70 -14 3 -4 58 -17 121 -30 151 -30 322 -72 335 -82 6 -4 30 -11 55 -15 57 -8 110 -32 110 -49 0 -13 69 -56 91 -56 8 -1 32 -9 54 -20 22 -11 57 -19 78 -20 20 0 45 -4 55 -9 9 -5 51 -17 92 -26 65 -15 195 -68 210 -86 6 -7 25 -17 134 -72 42 -22 76 -43 76 -48 0 -5 6 -9 13 -10 26 -1 141 -95 150 -122 14 -44 -15 -105 -81 -171 -55 -56 -231 -179 -322 -227 -25 -13 -47 -26 -50 -29 -3 -3 -23 -13 -45 -24 -22 -10 -49 -23 -60 -29 -93 -50 -135 -67 -164 -67 -41 0 -162 -28 -176 -41 -16 -15 -23 -10 -30 21 -4 17 -11 30 -16 30 -5 0 -9 9 -9 20 0 17 -15 62 -45 135 -5 11 -9 22 -9 25 -2 11 -36 92 -74 180 -11 25 -32 81 -47 124 -14 44 -29 84 -33 90 -4 6 -7 16 -7 21 0 6 -26 23 -58 39 -54 27 -58 28 -76 12 -15 -13 -35 -17 -88 -16 -305 8 -1328 2 -1488 -9 -229 -15 -476 -41 -496 -51 -9 -5 -50 -11 -90 -15 -41 -4 -85 -10 -99 -15 -14 -4 -55 -16 -92 -25 -81 -20 -107 -49 -88 -95 9 -21 21 -30 48 -35 20 -4 42 -11 49 -17 8 -6 19 -6 32 1 11 6 43 11 71 11 28 0 60 5 72 11 11 6 84 15 162 20 77 4 170 12 206 17 36 5 113 10 170 11 58 2 121 4 140 6 19 2 208 6 420 9 449 7 749 -3 800 -27 19 -8 47 -18 63 -21 15 -4 27 -11 27 -16 0 -6 7 -10 15 -10 8 0 61 -22 117 -49 l103 -48 58 -159 c32 -88 67 -180 77 -206 l18 -48 -27 0 c-15 0 -31 -4 -37 -8 -5 -5 -40 -17 -79 -27 -38 -10 -74 -22 -79 -26 -6 -5 -20 -9 -31 -9 -22 0 -30 13 -85 133 -12 26 -26 48 -31 48 -5 1 -13 2 -18 3 -5 0 -13 4 -17 9 -13 13 -63 7 -72 -9 -7 -13 -14 -12 -57 10 -26 14 -58 26 -71 26 -12 0 -24 6 -26 13 -4 9 -69 12 -279 13 -328 2 -488 -10 -659 -50 -36 -8 -148 -26 -250 -41 -102 -14 -194 -30 -205 -35 -11 -5 -58 -11 -105 -14 -47 -3 -103 -13 -125 -21 -22 -8 -52 -14 -66 -15 -56 0 -66 -64 -14 -90 53 -27 289 -20 540 15 66 9 143 19 170 22 28 3 55 9 60 13 6 4 47 10 93 13 45 4 90 11 100 16 25 14 378 34 499 29 80 -3 105 -8 134 -26 20 -12 43 -22 52 -22 8 0 17 -3 19 -7 2 -5 35 -23 73 -42 99 -49 105 -58 53 -71 -24 -6 -73 -19 -109 -29 -58 -16 -70 -17 -99 -5 -43 19 -49 18 -61 -10 -14 -30 -64 -46 -329 -103 -111 -23 -247 -48 -320 -59 -19 -2 -44 -8 -55 -11 -32 -11 -46 -13 -120 -19 -38 -3 -88 -9 -110 -14 -22 -5 -69 -12 -105 -15 -36 -3 -135 -12 -220 -19 -223 -21 -390 -35 -510 -42 -125 -7 -156 -11 -168 -18 -10 -6 -742 -10 -777 -4 -11 2 -22 6 -25 9 -3 4 -41 10 -85 13 -44 4 -120 11 -170 16 -49 5 -128 12 -175 15 -74 5 -224 25 -315 41 -16 3 -50 8 -75 10 -25 3 -52 8 -60 11 -8 3 -23 8 -33 9 -24 5 -84 36 -163 85 -35 21 -68 39 -73 39 -4 0 -15 8 -24 18 -9 10 -36 29 -59 41 -24 13 -61 34 -83 47 -22 13 -52 29 -67 36 -24 11 -27 18 -32 82 -4 39 -11 107 -16 151 -6 44 -12 107 -14 140 -2 33 -6 67 -9 75 -3 8 -8 31 -10 51 -2 19 -9 45 -16 56 -6 12 -11 30 -11 40 0 24 -51 83 -72 83 -10 0 -21 -13 -27 -32 -15 -46 -15 -216 -1 -328 15 -114 21 -210 14 -210 -3 0 -17 9 -31 20 -14 11 -32 20 -39 20 -8 0 -14 4 -14 9 0 5 -12 14 -27 20 -39 15 -106 53 -121 68 -7 7 -20 13 -28 13 -8 0 -14 3 -14 8 0 4 -32 25 -71 47 -125 71 -195 132 -229 199 -14 29 -18 31 -59 28 -40 -3 -52 -11 -111 -70 -36 -37 -83 -92 -103 -122 -20 -30 -47 -68 -60 -85 -21 -25 -26 -27 -39 -15 -8 8 -32 29 -53 45 -63 50 -119 107 -154 158 -36 53 -37 47 17 105 6 7 13 28 13 45 5 122 27 193 75 236 19 18 34 28 34 24 1 -5 9 2 19 14 10 12 30 25 45 29 14 3 26 10 26 15 0 5 26 20 58 34 111 51 147 70 170 91 20 18 295 104 333 104 6 0 25 6 42 14 18 8 59 21 92 29 33 8 92 24 130 36 39 12 79 24 90 26 11 2 38 9 60 15 22 6 63 16 90 22 28 5 55 14 61 19 5 4 37 15 70 23 32 8 95 24 139 36 44 12 104 27 133 35 30 7 59 18 65 24 6 6 32 11 58 11 26 0 50 4 54 9 3 6 27 13 53 16 26 4 67 13 92 20 25 8 104 26 175 41 72 15 135 31 142 36 6 5 44 11 85 14 40 3 82 9 93 14 24 11 259 37 450 50 77 5 154 14 170 19 35 11 200 8 405 -8z m2473 -13 c9 -33 -10 -56 -51 -64 -20 -4 -40 -12 -44 -17 -4 -8 -26 -7 -70 2 -35 7 -90 17 -123 23 -74 12 -93 25 -70 47 17 18 98 27 256 29 91 2 97 1 102 -20z m1931 -172 c3 -13 4 -79 1 -147 -2 -68 -7 -248 -10 -399 -4 -151 -8 -288 -10 -305 -2 -16 -7 -64 -10 -105 -7 -79 -40 -318 -51 -360 -3 -14 -10 -50 -14 -80 -5 -30 -11 -66 -14 -80 -3 -14 -18 -82 -33 -152 -26 -122 -29 -128 -76 -180 -36 -39 -75 -106 -149 -258 -114 -234 -148 -304 -179 -375 -12 -27 -40 -90 -64 -140 -23 -49 -55 -117 -70 -150 -14 -33 -42 -90 -61 -128 -19 -37 -34 -72 -34 -77 0 -5 -16 -36 -35 -69 -19 -32 -35 -64 -35 -70 0 -5 -13 -30 -29 -53 -16 -24 -33 -56 -36 -71 -8 -30 -25 -36 -26 -9 0 9 -2 24 -5 32 -2 8 -9 41 -14 74 -6 32 -15 66 -20 76 -5 10 -14 42 -19 71 -20 107 -31 155 -51 224 -11 39 -23 88 -27 110 -3 22 -9 45 -14 50 -4 6 -11 31 -15 55 -4 25 -11 53 -16 64 -6 10 -12 33 -15 50 -3 17 -11 45 -18 63 -8 18 -17 53 -20 78 -4 25 -11 45 -16 45 -5 0 -9 7 -9 17 0 22 -32 123 -39 123 -3 0 -7 17 -9 37 -1 20 -9 47 -17 60 -8 12 -15 29 -15 38 0 8 -4 23 -9 33 -4 9 -40 113 -79 231 l-70 215 77 37 c42 20 86 40 99 43 12 4 22 12 22 17 0 5 6 9 13 9 14 0 259 118 267 129 3 3 34 21 70 39 36 19 82 47 102 63 20 16 40 29 43 29 14 0 92 66 158 133 68 69 127 169 127 216 0 12 5 20 11 18 19 -4 22 61 5 95 -9 17 -16 37 -16 45 0 28 -67 113 -115 145 -27 18 -52 35 -55 39 -12 13 -172 88 -235 110 -38 13 -72 27 -75 31 -3 4 -26 10 -50 13 -48 7 -54 9 -142 49 -32 14 -69 28 -82 32 -14 3 -30 12 -37 20 -6 8 -24 14 -39 14 -16 0 -30 5 -32 10 -2 6 -21 13 -43 17 -22 3 -42 9 -45 13 -3 4 -56 22 -117 40 -111 32 -135 44 -90 46 56 3 303 17 407 24 63 4 359 8 656 9 l542 1 6 -24z m-7840 -389 c-35 -21 -74 -54 -74 -65 0 -5 -6 -12 -14 -15 -8 -3 -17 -21 -21 -39 -4 -18 -29 -61 -56 -94 -27 -34 -49 -65 -49 -68 0 -9 -37 -93 -54 -126 -42 -76 -32 -163 31 -256 55 -83 176 -202 265 -262 43 -28 43 -29 24 -51 -7 -9 -32 -52 -56 -96 -60 -112 -183 -324 -247 -425 -29 -47 -59 -94 -66 -105 -6 -11 -15 -22 -18 -25 -14 -13 -169 -242 -169 -251 0 -5 -7 -12 -15 -15 -8 -4 -15 -10 -15 -15 0 -9 -73 -111 -239 -336 -25 -34 -57 -78 -71 -97 -14 -20 -33 -47 -43 -59 -11 -12 -47 -60 -80 -107 -34 -47 -89 -122 -122 -167 -33 -45 -85 -117 -115 -159 -30 -42 -62 -84 -70 -94 -8 -10 -22 -28 -30 -40 -8 -12 -25 -33 -37 -46 -13 -14 -23 -32 -23 -40 0 -7 -4 -14 -9 -14 -5 0 -18 -15 -30 -32 l-20 -33 1 30 c2 38 -12 304 -18 330 -2 11 -8 108 -14 215 -5 107 -12 204 -14 215 -2 11 -7 77 -11 145 -4 69 -12 130 -17 137 -6 7 -5 14 2 18 6 3 7 12 3 18 -5 7 -13 68 -20 137 -6 69 -14 136 -17 150 -3 13 -8 65 -11 115 -4 49 -8 104 -10 120 -6 38 -37 340 -40 380 -1 17 -5 44 -9 60 -3 17 -13 89 -21 160 -8 72 -17 144 -20 160 -16 86 -26 203 -29 315 -2 69 -6 155 -10 193 -4 37 -4 68 1 68 4 1 18 3 30 4 12 1 28 9 37 17 16 17 28 19 246 44 80 9 154 20 165 24 11 5 81 11 155 15 74 4 137 10 140 15 3 5 71 11 150 13 80 2 213 9 295 15 158 13 386 28 445 30 32 1 33 0 14 -11z m-1874 -389 c-1 -35 -3 -40 -11 -25 -10 17 -5 67 6 67 3 0 5 -19 5 -42z m2403 -415 c18 -10 36 -24 40 -30 4 -7 12 -13 17 -13 11 0 97 -58 105 -71 4 -5 15 -9 26 -9 10 0 19 -4 19 -9 0 -5 10 -13 23 -17 12 -4 35 -17 50 -30 16 -13 33 -22 38 -18 5 3 9 2 9 -3 0 -4 10 -13 23 -18 44 -21 112 -60 125 -72 7 -7 18 -13 23 -13 18 0 41 -29 37 -48 -2 -10 -11 -16 -23 -14 -22 3 -121 39 -147 53 -10 5 -23 9 -29 9 -6 0 -25 6 -42 14 -18 8 -63 28 -100 45 -38 17 -72 31 -76 31 -4 0 -31 11 -59 25 -29 14 -57 25 -63 25 -5 0 -29 10 -52 23 -23 13 -62 29 -87 37 -25 7 -48 15 -52 17 -9 5 65 63 108 87 37 20 49 20 87 -1z m9977 -288 c9 -8 25 -15 36 -15 11 0 26 -6 33 -12 8 -9 48 -13 127 -13 63 0 113 -2 112 -5 -3 -5 -77 -117 -214 -325 -64 -97 -110 -164 -126 -187 -7 -9 -20 -26 -28 -38 -25 -37 -145 -196 -174 -231 -147 -183 -256 -306 -381 -434 -33 -34 -91 -95 -128 -136 -124 -133 -260 -269 -272 -269 -6 0 -22 -13 -35 -30 -14 -16 -46 -51 -71 -77 -66 -69 -89 -106 -82 -131 3 -12 11 -22 19 -22 7 0 16 -5 20 -11 13 -21 -281 23 -303 45 -6 5 50 109 78 144 10 14 19 31 19 38 0 8 3 14 8 14 4 0 16 17 27 38 11 20 32 56 47 79 15 23 28 46 28 51 0 6 3 12 8 14 8 4 72 99 95 143 8 17 24 39 34 50 10 11 40 54 67 95 27 41 64 94 82 117 19 23 34 46 34 52 0 6 4 11 9 11 5 0 12 8 15 18 4 10 14 27 24 38 9 10 49 59 87 108 39 49 77 96 85 105 8 9 33 39 55 66 22 28 57 70 78 95 21 25 41 50 45 55 7 11 119 141 139 163 7 7 27 33 44 57 18 25 36 45 41 45 4 0 8 7 8 15 0 7 6 18 13 22 7 4 26 29 43 56 21 34 34 46 47 43 23 -6 47 3 47 16 0 5 7 16 15 24 8 9 15 30 15 47 0 18 9 46 19 64 18 28 24 31 58 27 20 -3 44 -11 53 -19z m-4259 -100 c7 -30 16 -55 21 -55 4 0 8 -9 8 -21 0 -11 9 -41 19 -67 10 -26 38 -108 61 -182 23 -74 46 -139 50 -145 4 -5 12 -30 18 -55 15 -67 112 -390 128 -428 8 -18 14 -43 14 -55 0 -13 9 -48 20 -80 35 -99 22 -84 -50 59 -38 77 -76 150 -84 164 -9 14 -37 70 -64 125 -55 111 -84 167 -92 175 -5 5 -53 95 -91 172 -11 20 -23 40 -29 43 -6 4 -8 10 -5 15 3 4 -2 13 -10 20 -8 7 -15 18 -15 25 0 8 -3 15 -7 17 -5 2 -19 27 -32 56 -14 28 -28 52 -33 52 -4 0 -8 6 -8 13 0 7 -16 36 -36 66 -29 42 -33 55 -23 62 8 5 19 9 25 9 19 0 168 51 179 61 17 17 24 9 36 -46z m-10415 -841 c38 -14 80 -28 94 -31 14 -3 30 -9 35 -13 6 -4 38 -15 72 -25 49 -15 64 -24 72 -44 5 -14 33 -51 60 -81 28 -30 54 -59 58 -65 60 -78 78 -101 83 -105 5 -5 77 -90 125 -149 24 -29 35 -41 145 -162 47 -51 114 -123 150 -160 36 -37 80 -83 98 -103 18 -20 32 -34 32 -31 0 4 34 -26 155 -140 23 -22 84 -78 135 -125 51 -47 114 -105 139 -130 26 -25 73 -69 104 -98 52 -48 72 -72 48 -58 -5 4 -44 13 -88 22 -43 9 -82 20 -88 24 -5 4 -47 11 -92 15 -46 4 -83 11 -83 16 0 12 -42 73 -52 77 -5 2 -8 10 -8 18 0 8 -4 14 -8 14 -5 0 -24 21 -43 48 -18 26 -67 79 -108 117 -118 110 -348 342 -441 443 -47 51 -110 119 -140 151 -30 32 -107 113 -170 181 -63 67 -174 183 -247 257 -83 85 -130 140 -126 149 7 19 9 18 89 -12z m10264 -2043 c3 -1 32 -4 65 -6 130 -10 185 -19 300 -46 74 -18 105 -29 178 -65 16 -8 35 -14 42 -14 7 0 15 -3 17 -7 2 -5 28 -20 58 -35 87 -44 135 -72 170 -101 17 -15 35 -27 40 -27 13 0 124 -110 163 -162 46 -62 130 -234 158 -323 49 -161 72 -388 50 -500 -5 -27 -12 -83 -15 -124 -3 -40 -15 -103 -26 -138 -11 -36 -20 -73 -21 -82 0 -9 -13 -41 -29 -71 -16 -30 -38 -74 -49 -97 -36 -72 -80 -131 -149 -197 -95 -92 -137 -123 -220 -163 -40 -20 -75 -40 -78 -44 -3 -5 -14 -9 -26 -9 -11 0 -32 -7 -46 -14 -28 -16 -113 -37 -222 -56 -97 -18 -472 -15 -610 4 -142 19 -262 44 -275 57 -5 5 -21 9 -35 9 -14 0 -34 6 -45 14 -11 7 -38 19 -60 26 -50 16 -188 78 -195 88 -3 4 -16 13 -30 20 -65 32 -136 84 -223 162 -53 47 -96 89 -96 93 -1 5 -16 27 -35 50 -41 51 -106 178 -113 221 -3 17 -9 38 -14 47 -9 19 -7 228 3 244 3 6 9 36 13 68 4 31 11 57 15 57 4 0 12 25 19 56 15 66 68 202 87 225 8 8 14 20 14 25 1 17 45 99 85 157 47 68 81 123 95 155 11 26 63 93 121 157 20 22 49 55 64 73 15 17 31 32 37 32 6 0 27 13 47 28 20 15 70 43 111 61 41 19 79 38 85 42 5 5 17 9 27 9 11 0 33 7 50 16 43 22 254 74 303 74 22 0 45 4 52 8 10 6 128 9 143 3z m-6762 -134 c6 0 12 -4 12 -9 0 -4 3 -7 8 -6 12 4 95 -12 107 -20 5 -4 35 -16 65 -26 30 -11 61 -24 69 -30 14 -11 29 -20 82 -50 121 -68 303 -239 395 -371 17 -25 82 -155 115 -230 12 -28 50 -146 55 -170 22 -108 26 -162 21 -278 -7 -157 -33 -287 -77 -382 -29 -65 -84 -175 -100 -202 -52 -87 -218 -293 -244 -302 -6 -2 -15 -9 -21 -15 -17 -20 -123 -96 -135 -96 -5 0 -10 -4 -10 -10 0 -5 -12 -13 -27 -16 -15 -4 -41 -15 -58 -24 -16 -10 -70 -28 -120 -41 -83 -22 -109 -24 -315 -23 -213 1 -233 3 -370 33 -80 17 -146 36 -148 41 -2 6 -13 10 -23 10 -11 0 -45 11 -75 25 -30 14 -57 25 -59 25 -20 0 -183 87 -205 110 -3 3 -24 18 -47 33 -24 15 -58 42 -78 60 -19 17 -40 37 -47 43 -32 29 -116 127 -150 176 -37 52 -107 185 -108 201 0 5 -6 23 -13 40 -34 79 -41 117 -42 224 0 62 3 113 7 113 4 0 7 8 6 18 -1 45 16 150 28 174 8 15 14 40 14 55 0 15 9 46 19 68 10 22 36 76 56 120 21 44 43 85 49 90 6 6 28 33 49 60 45 59 199 218 248 257 19 14 57 45 86 67 29 23 61 41 71 41 11 0 37 16 58 36 22 19 59 45 84 57 25 11 52 26 60 33 32 24 244 83 330 91 30 3 57 7 60 10 3 3 73 2 155 -2 83 -4 156 -8 163 -8z"/>
 <path d="M10755 4300 c-16 -11 -38 -20 -47 -20 -10 0 -18 -4 -18 -10 0 -5 18 -10 40 -10 34 0 50 5 89 27 5 3 -20 33 -28 33 -3 0 -19 -9 -36 -20z"/>
 </g>

</svg>